PathFileType	4	(X/Y/Z)	D:\TRACE\spotREDO_2-26-24\spot_justBody_Motion_3_2-platform.trc
DataRate	CameraRate	NumFrames	NumMarkers	Units	OrigDataRate	OrigDataStartFrame	OrigNumFrames
100.00	100.00	      30	5	mm	100.00	3501	      7000
Frame#	Time	Left_Front			Right_Front			Left_Aft			Right_Aft			Post			
		X1	Y1	Z1	X2	Y2	Z2	X3	Y3	Z3	X4	Y4	Z4	X5	Y5	Z5	

3501	35.000	-713.43109	23.90160	-567.86255	701.58148	28.87984	-483.41623	-784.39246	-24.96235	650.00586	785.54999	-17.46096	653.52014	-4.10852	669.32483	-945.08649	
3502	35.010	-714.28143	23.81636	-567.80035	700.92975	28.94217	-483.39981	-785.11420	-24.73498	649.91962	785.26276	-17.34400	653.41754	-4.61294	669.34796	-944.93884	
3503	35.020	-714.81250	23.68623	-567.87207	700.13812	28.78818	-483.36517	-785.79559	-24.80011	649.74017	784.52673	-17.51842	653.36267	-5.38676	669.20154	-944.95227	
3504	35.030	-715.44080	23.58033	-567.91815	699.16479	28.79271	-483.54395	-786.61169	-24.29741	649.74945	783.71179	-17.13755	653.34637	-5.98510	669.11371	-944.83862	
3505	35.040	-716.16235	23.49207	-567.99390	698.69244	28.64220	-483.50797	-787.34375	-24.58748	649.84454	783.36975	-16.97619	653.51001	-6.64757	668.96857	-944.74634	
3506	35.050	-716.79150	23.29053	-567.92053	698.00867	28.25421	-483.61493	-788.15710	-24.51073	649.55890	782.38354	-17.22565	653.39471	-7.52206	668.69940	-944.78589	
3507	35.060	-717.79169	23.15713	-568.05310	697.36230	28.15928	-483.39551	-788.38623	-24.35498	649.86194	781.64612	-17.49563	653.05707	-8.26350	668.60229	-944.89581	
3508	35.070	-718.25372	22.87447	-568.16760	696.62146	28.20685	-483.50595	-789.21472	-24.36820	649.76337	780.84821	-17.21783	653.08917	-8.92048	668.34302	-945.31573	
3509	35.080	-718.86487	23.00007	-568.15741	696.08643	28.14016	-483.55576	-790.02655	-24.01786	649.85938	780.37311	-17.06988	653.13171	-9.53053	668.01428	-945.70184	
3510	35.090	-719.74231	22.79404	-568.16766	695.33820	27.77303	-483.55945	-790.67255	-23.92928	649.87933	779.54028	-16.77064	653.14886	-10.14330	667.78699	-945.90289	
3511	35.100	-720.12384	22.58035	-568.11664	694.69379	27.63692	-483.56509	-791.22266	-24.00163	649.80963	778.97540	-16.72139	653.09338	-10.79651	667.56012	-946.27979	
3512	35.110	-720.93018	22.52103	-568.25018	694.03198	27.47809	-483.75989	-791.72675	-23.70516	649.75061	778.36700	-16.66561	653.08905	-11.38803	667.25446	-946.72308	
3513	35.120	-721.60242	22.48433	-568.44617	693.38696	27.38515	-483.77866	-792.64490	-23.23126	649.66620	777.67816	-16.04416	653.36517	-12.03647	667.07416	-947.18811	
3514	35.130	-722.03607	22.24171	-568.38068	692.70721	27.18796	-483.77695	-793.21899	-23.32266	649.71405	776.74866	-15.94710	653.30634	-12.65117	666.77692	-947.38739	
3515	35.140	-722.89197	21.87064	-568.42871	692.17944	27.20690	-483.85193	-793.95599	-23.01727	649.61877	776.45502	-15.65502	653.32410	-13.39794	666.39594	-947.43970	
3516	35.150	-723.40698	21.77403	-568.40063	691.72510	27.09702	-483.90622	-794.54230	-22.77469	649.57385	775.81415	-15.44909	653.24780	-13.80953	666.18384	-947.55408	
3517	35.160	-723.76025	21.62636	-568.51807	691.05219	26.83168	-483.99710	-794.89801	-22.73065	649.47296	775.33258	-15.21769	653.20172	-14.45575	665.80347	-947.77991	
3518	35.170	-724.62048	21.40202	-568.62805	690.37457	26.30704	-483.99048	-795.48529	-22.49317	649.45947	774.61523	-14.98459	653.13416	-15.04189	665.31354	-947.85992	
3519	35.180	-725.24976	21.20943	-568.69153	689.91266	26.11672	-484.03146	-796.04663	-22.19740	649.47766	774.01086	-14.79692	652.97009	-15.80293	664.81732	-947.91589	
3520	35.190	-725.87494	20.85772	-568.72729	689.26758	26.01914	-484.19672	-796.66718	-21.92131	649.30762	773.32556	-14.56333	652.86584	-16.26498	664.59515	-948.15601	
3521	35.200	-726.33356	20.58682	-568.97449	688.91699	25.89374	-484.26880	-797.10089	-21.68814	649.25006	772.93652	-14.26547	652.86877	-16.64948	664.17065	-948.69977	
3522	35.210	-726.66986	20.51950	-569.00702	688.46008	25.75386	-484.25323	-797.70856	-21.24629	649.27002	772.47528	-14.07941	652.81073	-17.21109	663.65350	-949.12109	
3523	35.220	-727.18823	20.32062	-569.06458	687.69763	25.40765	-484.36124	-798.23749	-20.88944	649.21497	771.83289	-13.83359	652.74573	-17.52602	663.15851	-949.55139	
3524	35.230	-727.65759	19.93347	-569.12384	687.13550	25.13817	-484.51437	-798.66602	-20.81923	649.13916	771.39783	-13.56437	652.73846	-18.13710	662.79700	-950.39642	
3525	35.240	-728.01331	19.63669	-569.10547	686.90204	24.81861	-484.58786	-799.12872	-20.58300	649.08344	771.07758	-13.17180	652.62030	-18.53282	662.31372	-950.89893	
3526	35.250	-728.52185	19.26233	-569.26465	686.56750	24.73431	-484.64481	-799.55121	-20.26787	649.02979	770.62598	-12.85817	652.60040	-19.27396	661.83514	-951.66473	
3527	35.260	-728.94019	18.86886	-569.38324	686.09082	24.53651	-484.62003	-799.97278	-19.96268	649.03949	770.26514	-12.78589	652.26892	-19.26571	661.28735	-951.96667	
3528	35.270	-729.26129	18.52110	-569.40918	685.67255	24.32339	-484.72028	-800.28589	-19.55298	649.01007	769.95868	-12.53036	652.18988	-19.67017	660.68469	-952.29047	
3529	35.280	-729.57910	18.18817	-569.43256	685.23529	24.13469	-484.92212	-800.62067	-19.21770	648.92267	769.54382	-12.17335	652.13477	-20.09016	660.25024	-952.45685	
3530	35.290	-729.87219	17.98859	-569.53699	684.87347	23.58590	-485.11349	-800.82037	-18.80255	648.94373	769.19135	-11.88879	651.93988	-20.38265	659.90967	-952.75903	
